<svg width="87" height="125" viewBox="0 0 87 125" fill="none" xmlns="http://www.w3.org/2000/svg">
<path d="M64.34 5.48L63.4456 7.26885L63.4523 7.27224L63.4592 7.27557L64.34 5.48ZM78.74 18.08L77.0354 19.126L77.0439 19.14L77.0527 19.1537L78.74 18.08ZM79.82 54.08L81.6445 54.8992L79.82 54.08ZM65.78 74.42L67.2748 75.7487L67.28 75.7429L67.2852 75.737L65.78 74.42ZM36.44 103.22L35.0967 101.738L31.256 105.22H36.44V103.22ZM86.3 103.22L88.2827 103.482L88.5819 101.22H86.3V103.22ZM83.42 125V127H85.173L85.4027 125.262L83.42 125ZM4.22 125H2.22V127H4.22V125ZM4.22 104.84L2.81743 103.414L2.22 104.002V104.84H4.22ZM36.44 72.08L37.9133 73.4325L37.9188 73.4266L37.9242 73.4206L36.44 72.08ZM50.48 53.54L48.7357 52.5615L48.7265 52.5778L48.7177 52.5944L50.48 53.54ZM50.3 26.9L48.856 28.2838L48.8855 28.3145L48.9162 28.344L50.3 26.9ZM27.44 25.64L28.4323 27.3765L28.4553 27.3633L28.478 27.3496L27.44 25.64ZM16.82 35.18L15.5747 36.745L17.1007 37.9592L18.353 36.4644L16.82 35.18ZM0.08 21.86L-1.50954 20.6462L-2.6994 22.2043L-1.16528 23.425L0.08 21.86ZM18.08 6.37999L17.1497 4.6095L17.1435 4.6128L17.1372 4.61613L18.08 6.37999ZM41.84 2.79999C50.3669 2.79999 57.5451 4.31861 63.4456 7.26885L65.2344 3.69114C58.6549 0.401367 50.8331 -1.20001 41.84 -1.20001V2.79999ZM63.4592 7.27557C69.5291 10.2533 74.0207 14.2132 77.0354 19.126L80.4446 17.034C76.9793 11.3868 71.8709 6.9467 65.2208 3.68441L63.4592 7.27557ZM77.0527 19.1537C80.205 24.1074 81.78 29.5538 81.78 35.54H85.78C85.78 28.8062 83.995 22.6126 80.4273 17.0062L77.0527 19.1537ZM81.78 35.54C81.78 41.7392 80.5192 47.6398 77.9955 53.2608L81.6445 54.8992C84.4008 48.7601 85.78 42.3008 85.78 35.54H81.78ZM77.9955 53.2608C75.4697 58.8863 70.931 65.496 64.2748 73.103L67.2852 75.737C74.069 67.984 78.8903 61.0337 81.6445 54.8992L77.9955 53.2608ZM64.2852 73.0913C57.6348 80.573 47.9152 90.1177 35.0967 101.738L37.7833 104.702C50.6448 93.0423 60.4853 83.387 67.2748 75.7487L64.2852 73.0913ZM36.44 105.22H86.3V101.22H36.44V105.22ZM84.3173 102.958L81.4373 124.738L85.4027 125.262L88.2827 103.482L84.3173 102.958ZM83.42 123H4.22V127H83.42V123ZM6.22 125V104.84H2.22V125H6.22ZM5.62257 106.266C20.3868 91.7416 31.1571 80.792 37.9133 73.4325L34.9667 70.7275C28.283 78.008 17.5732 88.8984 2.81743 103.414L5.62257 106.266ZM37.9242 73.4206C44.6814 65.9394 49.4882 59.6183 52.2423 54.4856L48.7177 52.5944C46.1918 57.3017 41.6386 63.3406 34.9558 70.7394L37.9242 73.4206ZM52.2243 54.5185C55.1359 49.3282 56.62 43.9541 56.62 38.42H52.62C52.62 43.2059 51.3441 47.9118 48.7357 52.5615L52.2243 54.5185ZM56.62 38.42C56.62 33.0907 55.0458 28.6779 51.6838 25.456L48.9162 28.344C51.3142 30.6421 52.62 33.9093 52.62 38.42H56.62ZM51.744 25.5162C48.5315 22.164 44.1859 20.58 38.96 20.58V24.58C43.3342 24.58 46.5485 25.876 48.856 28.2838L51.744 25.5162ZM38.96 20.58C34.3114 20.58 30.1054 21.6819 26.402 23.9304L28.478 27.3496C31.4946 25.5181 34.9686 24.58 38.96 24.58V20.58ZM26.4477 23.9035C22.8067 25.9841 19.0909 29.3553 15.287 33.8956L18.353 36.4644C21.9891 32.1247 25.3533 29.1359 28.4323 27.3765L26.4477 23.9035ZM18.0653 33.615L1.32528 20.295L-1.16528 23.425L15.5747 36.745L18.0653 33.615ZM1.66954 23.0738C6.54507 16.6892 12.3284 11.7219 19.0228 8.14386L17.1372 4.61613C9.91163 8.4781 3.69493 13.8308 -1.50954 20.6462L1.66954 23.0738ZM19.0103 8.15048C25.7767 4.59523 33.3726 2.79999 41.84 2.79999V-1.20001C32.7874 -1.20001 24.5433 0.724747 17.1497 4.6095L19.0103 8.15048Z" fill="url(#paint0_linear_4_4)"/>
<defs>
<linearGradient id="paint0_linear_4_4" x1="45.5" y1="-43" x2="45.5" y2="173" gradientUnits="userSpaceOnUse">
<stop stop-color="#00C2FF"/>
<stop offset="1" stop-color="#009DCF"/>
</linearGradient>
</defs>
</svg>
