<svg width="89" height="129" viewBox="0 0 89 129" fill="none" xmlns="http://www.w3.org/2000/svg">
<path d="M65.8 4.93999L64.9642 6.75697L64.971 6.76009L64.9778 6.76316L65.8 4.93999ZM79.66 16.1L77.9959 17.2094L78.0056 17.224L78.0156 17.2384L79.66 16.1ZM78.22 50.12L76.6989 48.8215L76.6896 48.8323L76.6805 48.8433L78.22 50.12ZM60.76 60.74L60.2106 58.8169L60.5552 62.7295L60.76 60.74ZM80.74 69.56L79.3425 70.9907L79.3511 70.9992L79.3599 71.0075L80.74 69.56ZM83.08 109.52L84.7658 110.596L84.771 110.588L84.776 110.58L83.08 109.52ZM67.06 123.02L66.2025 121.213L66.1905 121.219L67.06 123.02ZM0.28 109.7L-1.11728 108.269L-2.43205 109.553L-1.26386 110.971L0.28 109.7ZM15.58 94.76L16.9942 93.3458L15.5967 91.9483L14.1827 93.3291L15.58 94.76ZM27.46 103.76L26.5656 105.549L26.5987 105.565L26.6324 105.581L27.46 103.76ZM54.1 101.78L55.4351 103.269L54.1 101.78ZM54.28 75.5L52.9831 77.0225L53.0132 77.0482L53.0444 77.0726L54.28 75.5ZM29.44 71.36L27.4639 71.0518L27.1039 73.36H29.44V71.36ZM32.5 51.74V49.74H30.7878L30.5239 51.4318L32.5 51.74ZM52.3 47.6L53.6252 49.098L52.3 47.6ZM52.66 25.64L51.343 27.1451L51.3611 27.161L51.3796 27.1764L52.66 25.64ZM17.02 32.48L15.5464 33.8322L16.9346 35.345L18.4104 33.9176L17.02 32.48ZM2.98 17.18L1.60409 15.7285L0.175891 17.0823L1.50641 18.5322L2.98 17.18ZM44.02 2.79999C52.3319 2.79999 59.2907 4.14718 64.9642 6.75697L66.6358 3.12301C60.3093 0.212799 52.7481 -1.20001 44.02 -1.20001V2.79999ZM64.9778 6.76316C70.8226 9.39908 75.1213 12.8975 77.9959 17.2094L81.3241 14.9906C77.9587 9.94252 73.0174 6.0009 66.6222 3.11682L64.9778 6.76316ZM78.0156 17.2384C81.0211 21.5797 82.52 26.4016 82.52 31.76H86.52C86.52 25.5984 84.7789 19.9803 81.3044 14.9616L78.0156 17.2384ZM82.52 31.76C82.52 38.6706 80.5491 44.3112 76.6989 48.8215L79.7411 51.4185C84.2909 46.0888 86.52 39.4894 86.52 31.76H82.52ZM76.6805 48.8433C72.9118 53.388 67.473 56.742 60.2106 58.8169L61.3094 62.663C69.167 60.418 75.3682 56.692 79.7595 51.3967L76.6805 48.8433ZM60.5552 62.7295C68.3309 63.5299 74.5494 66.3091 79.3425 70.9907L82.1375 68.1292C76.6106 62.7309 69.5091 59.6301 60.9648 58.7505L60.5552 62.7295ZM79.3599 71.0075C84.0208 75.4516 86.48 81.8857 86.48 90.62H90.48C90.48 81.1143 87.7792 73.5084 82.1202 68.1125L79.3599 71.0075ZM86.48 90.62C86.48 97.0879 84.7839 103.02 81.384 108.46L84.776 110.58C88.5761 104.5 90.48 97.8321 90.48 90.62H86.48ZM81.3942 108.444C78.0287 113.717 73.0023 117.986 66.2025 121.213L67.9175 124.827C75.2777 121.334 80.9313 116.604 84.7658 110.596L81.3942 108.444ZM66.1905 121.219C59.5623 124.419 51.5344 126.06 42.04 126.06V130.06C51.9856 130.06 60.6377 128.341 67.9295 124.821L66.1905 121.219ZM42.04 126.06C24.7966 126.06 11.4753 120.148 1.82386 108.429L-1.26386 110.971C9.24472 123.732 23.7634 130.06 42.04 130.06V126.06ZM1.67728 111.131L16.9773 96.1909L14.1827 93.3291L-1.11728 108.269L1.67728 111.131ZM14.1658 96.1742C18.349 100.357 22.48 103.506 26.5656 105.549L28.3544 101.971C24.76 100.174 20.971 97.3226 16.9942 93.3458L14.1658 96.1742ZM26.6324 105.581C30.8716 107.508 35.4765 108.46 40.42 108.46V104.46C36.0035 104.46 31.9684 103.612 28.2876 101.939L26.6324 105.581ZM40.42 108.46C46.4457 108.46 51.5156 106.783 55.4351 103.269L52.7649 100.291C49.7244 103.017 45.6743 104.46 40.42 104.46V108.46ZM55.4351 103.269C59.4154 99.7006 61.32 94.7957 61.32 88.82H57.32C57.32 93.8844 55.7446 97.6194 52.7649 100.291L55.4351 103.269ZM61.32 88.82C61.32 82.2598 59.5496 77.0969 55.5156 73.9274L53.0444 77.0726C55.7304 79.1831 57.32 82.9001 57.32 88.82H61.32ZM55.5769 73.9775C51.8222 70.779 46.3459 69.36 39.52 69.36V73.36C45.8941 73.36 50.2578 74.701 52.9831 77.0225L55.5769 73.9775ZM39.52 69.36H29.44V73.36H39.52V69.36ZM31.4161 71.6682L34.4761 52.0482L30.5239 51.4318L27.4639 71.0518L31.4161 71.6682ZM32.5 53.74H39.52V49.74H32.5V53.74ZM39.52 53.74C45.26 53.74 50.0419 52.2678 53.6252 49.098L50.9749 46.102C48.3181 48.4522 44.58 49.74 39.52 49.74V53.74ZM53.6252 49.098C57.2635 45.8795 58.98 41.382 58.98 35.9H54.98C54.98 40.498 53.5765 43.8005 50.9749 46.102L53.6252 49.098ZM58.98 35.9C58.98 30.9876 57.3619 26.9549 53.9404 24.1036L51.3796 27.1764C53.7181 29.1251 54.98 31.9324 54.98 35.9H58.98ZM53.977 24.1348C50.6299 21.2061 46.1482 19.86 40.78 19.86V23.86C45.4918 23.86 48.9301 25.0339 51.343 27.1451L53.977 24.1348ZM40.78 19.86C31.6423 19.86 23.2449 23.6768 15.6295 31.0424L18.4104 33.9176C25.4351 27.1232 32.8777 23.86 40.78 23.86V19.86ZM18.4936 31.1278L4.45359 15.8278L1.50641 18.5322L15.5464 33.8322L18.4936 31.1278ZM4.35591 18.6315C15.5052 8.06286 28.6931 2.79999 44.02 2.79999V-1.20001C27.6669 -1.20001 13.4948 4.45712 1.60409 15.7285L4.35591 18.6315Z" fill="url(#paint0_linear_4_7)"/>
<defs>
<linearGradient id="paint0_linear_4_7" x1="48" y1="-43" x2="48" y2="173" gradientUnits="userSpaceOnUse">
<stop stop-color="#00C2FF"/>
<stop offset="1" stop-color="#009DCF"/>
</linearGradient>
</defs>
</svg>
